<?xml version="1.0" encoding="utf-8"?>
<!-- Generator: Adobe Illustrator 27.5.0, SVG Export Plug-In . SVG Version: 6.00 Build 0)  -->
<svg version="1.1" xmlns="http://www.w3.org/2000/svg" xmlns:xlink="http://www.w3.org/1999/xlink" x="0px" y="0px"
	 viewBox="0 0 750 500" style="enable-background:new 0 0 750 500;" xml:space="preserve" fill="none">
<g id="BACKGROUND">
	<linearGradient id="SVGID_1_" gradientUnits="userSpaceOnUse" x1="375" y1="310.8085" x2="375" y2="7.7655">
		<stop  offset="0" style="stop-color:#FFF87A"/>
		<stop  offset="0.1399" style="stop-color:#F8F684"/>
		<stop  offset="0.379" style="stop-color:#E6EF9F"/>
		<stop  offset="0.6883" style="stop-color:#C8E5CC"/>
		<stop  offset="1" style="stop-color:#A6D9FF"/>
	</linearGradient>
	<rect style="fill:url(#SVGID_1_);" width="750" height="500"/>
</g>
<g id="OBJECTS">
	<g>
		<g>
			<path style="fill:#FFFFFF;" d="M360.01,110.839H248.33c1.941-4.689,6.083-8.232,11.124-9.339
				c0.964-12.426,11.319-22.208,23.98-22.208c8.857,0,16.582,4.806,20.763,11.931c3.282-2.253,7.255-3.569,11.54-3.569
				c8.571,0,15.891,5.275,18.939,12.752c2.683-2.123,6.057-3.399,9.743-3.399C352.456,97.006,359.085,103.05,360.01,110.839z"/>
			<path style="fill:#D1EBFF;" d="M252.073,110.841h104.719c-2.118-5.395-7.671-9.241-14.178-9.241
				c-3.549,0-6.793,1.139-9.388,3.044c-2.919-6.712-9.98-11.448-18.223-11.448c-4.122,0-7.957,1.175-11.125,3.205
				c-4.026-6.409-11.449-10.718-19.978-10.718c-12.193,0-22.154,8.795-23.089,19.959
				C257.282,106.354,254.21,108.242,252.073,110.841z"/>
			<path style="fill:#A2CBEB;" d="M248.33,110.839c0-1.424,25.001-2.578,55.84-2.578c30.84,0,55.84,1.154,55.84,2.578
				c0,1.424-25,2.578-55.84,2.578C273.331,113.417,248.33,112.263,248.33,110.839z"/>
		</g>
		<g>
			<path style="fill:#FFFFFF;" d="M661.889,81.965H550.214c1.3-5.429,6.178-9.454,12.002-9.454c2.569,0,4.95,0.78,6.926,2.122
				c2.891-7.03,9.797-11.981,17.867-11.981c2.631,0,5.138,0.53,7.426,1.477c3.952-10.182,13.853-17.41,25.438-17.41
				c15.069,0,27.279,12.21,27.279,27.279v0.125c1.508-1.019,3.328-1.612,5.283-1.612C657.656,72.512,661.889,76.744,661.889,81.965z
				"/>
			<path style="fill:#FFFFFF;" d="M661.889,81.965H550.214c1.3-5.429,6.178-9.454,12.002-9.454c2.569,0,4.95,0.78,6.926,2.122
				c2.891-7.03,9.797-11.981,17.867-11.981c2.631,0,5.138,0.53,7.426,1.477c3.952-10.182,13.853-17.41,25.438-17.41
				c15.069,0,27.279,12.21,27.279,27.279v0.125c1.508-1.019,3.328-1.612,5.283-1.612C657.656,72.512,661.889,76.744,661.889,81.965z
				"/>
			<path style="fill:#FFFFFF;" d="M661.894,81.964H550.211c1.3-5.421,6.175-9.451,11.999-9.451c2.574,0,4.953,0.78,6.929,2.119
				c2.899-7.033,9.802-11.973,17.875-11.973c2.626,0,5.135,0.52,7.423,1.469c3.952-10.179,13.845-17.407,25.441-17.407
				c15.067,0,27.274,12.207,27.274,27.274v0.13c1.508-1.014,3.328-1.612,5.278-1.612C657.656,72.513,661.894,76.751,661.894,81.964z
				"/>
			<path style="fill:#D1EBFF;" d="M658.683,81.964H554.254c2.119-2.886,5.707-4.784,9.776-4.784c2.47,0,4.745,0.689,6.643,1.885
				c2.769-6.227,9.386-10.608,17.121-10.608c2.522,0,4.927,0.468,7.124,1.3c3.783-9.009,13.273-15.405,24.388-15.405
				c14.443,0,26.143,10.803,26.143,24.141v0.117c1.443-0.91,3.185-1.43,5.057-1.43C654.12,77.18,657.24,79.13,658.683,81.964z"/>
			<path style="fill:#A2CBEB;" d="M661.889,81.965c0,1.374-24.999,2.487-55.838,2.487s-55.838-1.114-55.838-2.487
				c0-1.374,24.999-2.487,55.838-2.487S661.889,80.591,661.889,81.965z"/>
		</g>
		<g>
			<path style="fill:#FFFFFF;" d="M59.835,81.965H171.51c-1.3-5.429-6.178-9.454-12.002-9.454c-2.569,0-4.95,0.78-6.926,2.122
				c-2.891-7.03-9.797-11.981-17.867-11.981c-2.631,0-5.138,0.53-7.426,1.477c-3.952-10.182-13.853-17.41-25.438-17.41
				c-15.069,0-27.279,12.21-27.279,27.279v0.125c-1.508-1.019-3.328-1.612-5.283-1.612C64.068,72.512,59.835,76.744,59.835,81.965z"
				/>
			<path style="fill:#FFFFFF;" d="M59.835,81.965H171.51c-1.3-5.429-6.178-9.454-12.002-9.454c-2.569,0-4.95,0.78-6.926,2.122
				c-2.891-7.03-9.797-11.981-17.867-11.981c-2.631,0-5.138,0.53-7.426,1.477c-3.952-10.182-13.853-17.41-25.438-17.41
				c-15.069,0-27.279,12.21-27.279,27.279v0.125c-1.508-1.019-3.328-1.612-5.283-1.612C64.068,72.512,59.835,76.744,59.835,81.965z"
				/>
			<path style="fill:#FFFFFF;" d="M59.83,81.964h111.683c-1.3-5.421-6.175-9.451-11.999-9.451c-2.574,0-4.953,0.78-6.929,2.119
				c-2.899-7.033-9.802-11.973-17.875-11.973c-2.626,0-5.135,0.52-7.423,1.469c-3.952-10.179-13.845-17.407-25.441-17.407
				c-15.067,0-27.274,12.207-27.274,27.274v0.13c-1.508-1.014-3.328-1.612-5.278-1.612C64.068,72.513,59.83,76.751,59.83,81.964z"/>
			<path style="fill:#D1EBFF;" d="M63.041,81.964H167.47c-2.119-2.886-5.707-4.784-9.776-4.784c-2.47,0-4.745,0.689-6.643,1.885
				c-2.769-6.227-9.386-10.608-17.121-10.608c-2.522,0-4.927,0.468-7.124,1.3c-3.783-9.009-13.273-15.405-24.388-15.405
				c-14.443,0-26.143,10.803-26.143,24.141v0.117c-1.443-0.91-3.185-1.43-5.057-1.43C67.604,77.18,64.484,79.13,63.041,81.964z"/>
			<path style="fill:#A2CBEB;" d="M59.835,81.965c0,1.374,24.999,2.487,55.838,2.487s55.838-1.114,55.838-2.487
				c0-1.374-24.999-2.487-55.838-2.487S59.835,80.591,59.835,81.965z"/>
		</g>
	</g>
	<g>
		<g>
			<polygon style="fill:#567C94;" points="750,182.565 750,314.995 0,314.995 0,176.701 81.02,218.645 171.27,142.055 
				272.65,228.085 417.11,105.495 482.45,160.955 589.35,70.235 735.86,194.565 			"/>
		</g>
		<g>
			<polygon style="fill:#49697D;" points="750,230.275 750,314.995 0,314.995 0,224.415 81.02,266.355 171.27,189.765 
				272.65,275.795 417.11,153.205 482.45,208.665 589.35,117.945 735.86,242.275 			"/>
		</g>
		<path style="fill:#FFFFFF;" d="M609.73,87.527l-3.69-0.28c-0.13-0.01-0.26-0.01-0.39-0.01c-2.02,0-3.79,1.17-4.17,2.82
			c-0.54,2.42-3.9,3.61-6.43,2.29l-3.19-1.66c-1.35-0.69-3.06-0.72-4.44-0.05l-3.77,1.84c-2.13,1.04-4.88,0.37-5.97-1.44l-0.98-1.65
			c-0.86-1.44-2.82-2.2-4.73-1.84l-3.86,0.71l21.24-18.02L609.73,87.527z"/>
		<path style="fill:#FFFFFF;" d="M191.04,158.827l-12.09-4.08c-0.13-0.04-0.26-0.08-0.39-0.11c-2.05-0.49-4.19,0.55-5.06,2.51
			c-1.25,2.86-5.01,3.54-7.19,1.3l-2.75-2.82c-1.16-1.18-2.89-1.62-4.49-1.12l-3.96,1.25l16.16-13.71L191.04,158.827z"/>
		<path style="fill:#FFFFFF;" d="M433.15,119.117l-5.21-1.29c-0.32-0.08-0.65-0.12-0.97-0.12c-1.21,0-2.34,0.56-2.84,1.49
			c-0.81,1.49-3.16,1.96-4.82,0.97l-0.68-0.41c-1.2-0.71-2.83-0.69-3.95,0.05l-0.96,0.64c-1.48,0.98-3.74,0.66-4.79-0.67l-0.12-0.16
			c-0.75-0.96-2.19-1.43-3.54-1.17l-4.45,0.87l16.29-13.82L433.15,119.117z"/>
	</g>
	<g>
		<g>
			<path style="fill:#7FA600;" d="M750,259.465V500H0V276.955c0,0,326.71,32.4,526.21,17.96
				C602.73,289.375,666.82,268.795,750,259.465z"/>
			<g>
				<path style="fill:#608A00;" d="M711.602,460.79l3.756-12.521c-5.521,4.962-5.631,12.223-5.357,15.466l-1.547-12.018
					c-3.085,6.923,1.762,13.692,1.762,13.692l7.337-10.775C714.45,456.041,712.648,458.547,711.602,460.79z"/>
				<path style="fill:#608A00;" d="M38.5,305.781l3.756-12.521c-5.521,4.961-5.63,12.223-5.357,15.465l-1.547-12.018
					c-3.085,6.923,1.762,13.692,1.762,13.692l7.337-10.775C41.349,301.032,39.547,303.538,38.5,305.781z"/>
				<path style="fill:#608A00;" d="M486.677,454.794c-3.103,1.407-4.905,3.913-5.951,6.156l3.756-12.521
					c-7.297,6.558-5.142,17.14-5.142,17.14L486.677,454.794z"/>
				<path style="fill:#608A00;" d="M606.585,373.976c-3.103,1.407-4.905,3.913-5.951,6.156l3.756-12.521
					c-7.297,6.558-5.142,17.14-5.142,17.14L606.585,373.976z"/>
				<path style="fill:#608A00;" d="M590.324,475.281c1.144,0,2.003,0.318,2.094,0.846c0.12,0.699-1.157,1.501-2.852,1.791
					c-0.416,0.071-0.819,0.105-1.191,0.105c-1.144,0-2.003-0.318-2.094-0.846c-0.12-0.699,1.157-1.501,2.852-1.791
					C589.549,475.315,589.951,475.281,590.324,475.281 M590.324,474.281c-0.44,0-0.897,0.04-1.36,0.119
					c-2.387,0.408-3.896,1.62-3.669,2.945c0.18,1.05,1.331,1.677,3.079,1.677c0.44,0,0.897-0.04,1.36-0.119
					c0.945-0.162,1.823-0.475,2.469-0.881c1.22-0.766,1.275-1.622,1.199-2.064C593.224,474.908,592.072,474.281,590.324,474.281
					L590.324,474.281L590.324,474.281z"/>
				<path style="fill:#608A00;" d="M499.786,459.739c0.098,0.573,1.304,0.845,2.694,0.608s2.437-0.895,2.339-1.469
					c-0.098-0.573-1.304-0.845-2.694-0.607S499.688,459.166,499.786,459.739z"/>
				<path style="fill:#608A00;" d="M725.807,295.25c0.098,0.573,1.304,0.845,2.694,0.607c1.39-0.238,2.437-0.895,2.339-1.469
					c-0.098-0.573-1.304-0.845-2.694-0.608C726.756,294.019,725.709,294.677,725.807,295.25z"/>
				<path style="fill:#608A00;" d="M120.889,321.788c0.098,0.573,1.304,0.845,2.694,0.608s2.437-0.895,2.339-1.469
					c-0.098-0.573-1.304-0.845-2.694-0.608S120.791,321.215,120.889,321.788z"/>
				<path style="fill:#608A00;" d="M20.83,290.761c0.098,0.573,1.304,0.845,2.694,0.608s2.437-0.895,2.339-1.469
					c-0.098-0.573-1.304-0.845-2.694-0.608C21.779,289.53,20.731,290.188,20.83,290.761z"/>
				<path style="fill:#608A00;" d="M144.149,310.83c0.098,0.573,1.304,0.845,2.694,0.608c1.39-0.238,2.437-0.895,2.339-1.469
					c-0.098-0.573-1.304-0.845-2.694-0.608C145.098,309.599,144.051,310.257,144.149,310.83z"/>
				<path style="fill:#608A00;" d="M621.904,475.958c0.098,0.573,1.304,0.845,2.694,0.608c1.39-0.238,2.437-0.895,2.339-1.469
					c-0.098-0.573-1.304-0.845-2.694-0.607C622.853,474.727,621.806,475.385,621.904,475.958z"/>
				<path style="fill:#608A00;" d="M547.339,446.388c0.098,0.573,1.304,0.845,2.694,0.608c1.39-0.238,2.437-0.895,2.339-1.469
					s-1.304-0.845-2.694-0.607C548.288,445.158,547.241,445.815,547.339,446.388z"/>
				<path style="fill:#608A00;" d="M709.927,393.255c0.12,0.699,1.59,1.031,3.285,0.741c1.695-0.29,2.971-1.092,2.852-1.791
					c-0.12-0.699-1.59-1.031-3.285-0.741C711.084,391.754,709.807,392.556,709.927,393.255z"/>
				<g>
					<path style="fill:#608A00;" d="M564.527,405.971c0.098,0.573,1.304,0.845,2.694,0.607c1.39-0.238,2.437-0.895,2.339-1.469
						c-0.098-0.573-1.304-0.845-2.694-0.608C565.476,404.74,564.429,405.398,564.527,405.971z"/>
					<path style="fill:#608A00;" d="M556.836,399.645c0.143,0.839,1.908,1.237,3.942,0.889c2.034-0.348,3.566-1.31,3.422-2.149
						c-0.144-0.839-1.908-1.237-3.942-0.889C558.225,397.844,556.693,398.806,556.836,399.645z"/>
				</g>
				<path style="fill:#608A00;" d="M48.502,337.596c1.144,0,2.004,0.318,2.094,0.846c0.12,0.699-1.157,1.501-2.852,1.791
					c-0.416,0.071-0.819,0.105-1.191,0.105c-1.144,0-2.003-0.318-2.094-0.846c-0.12-0.699,1.157-1.501,2.852-1.791
					C47.727,337.63,48.13,337.596,48.502,337.596 M48.502,336.596c-0.44,0-0.897,0.04-1.36,0.119
					c-2.387,0.409-3.896,1.62-3.669,2.945c0.18,1.05,1.331,1.677,3.079,1.677c0.44,0,0.897-0.04,1.36-0.119
					c0.945-0.162,1.822-0.475,2.469-0.881c1.22-0.766,1.275-1.622,1.2-2.064C51.402,337.223,50.25,336.596,48.502,336.596
					L48.502,336.596L48.502,336.596z"/>
				<path style="fill:#608A00;" d="M113.155,354.682c0.098,0.573,1.304,0.845,2.694,0.608s2.437-0.895,2.339-1.469
					c-0.098-0.573-1.304-0.845-2.694-0.608C114.104,353.452,113.057,354.109,113.155,354.682z"/>
				<path style="fill:#608A00;" d="M24.715,392.409c0.098,0.573,1.304,0.845,2.694,0.608s2.437-0.895,2.339-1.469
					c-0.098-0.573-1.304-0.845-2.694-0.608C25.664,391.179,24.617,391.836,24.715,392.409z"/>
				<path style="fill:#608A00;" d="M61.888,386.306c0.098,0.573,1.304,0.845,2.694,0.607c1.39-0.238,2.437-0.895,2.339-1.469
					c-0.098-0.573-1.304-0.845-2.694-0.607C62.837,385.075,61.79,385.732,61.888,386.306z"/>
				<g>
					<path style="fill:#608A00;" d="M64.722,335.344c0.098,0.573,1.304,0.845,2.694,0.607c1.39-0.238,2.437-0.895,2.339-1.469
						c-0.098-0.573-1.304-0.845-2.694-0.608C65.671,334.113,64.624,334.77,64.722,335.344z"/>
					<path style="fill:#608A00;" d="M57.031,329.018c0.144,0.839,1.908,1.237,3.942,0.889c2.034-0.348,3.566-1.31,3.422-2.149
						c-0.144-0.839-1.908-1.237-3.942-0.889C58.42,327.217,56.888,328.179,57.031,329.018z"/>
				</g>
			</g>
		</g>
		<path style="fill:#BF963C;" d="M683.49,269.445c-3.27,1.54-6.58,3.2-9.91,4.96c-0.67,0.36-1.34,0.71-2.01,1.08
			c-3.21,3.57-9.21,4.57-12.65,8.94c-0.51,0.49-1,0.97-1.5,1.44c-2.48,2.35-4.9,4.51-7.74,5.84c-0.48,0.32-0.97,0.64-1.48,0.95
			c-1.53,0.94-3.2,1.86-5.06,2.92c-0.62,0.51-1.11,1.01-1.63,1.48c-3.24,3.27-7.88,4.83-11.91,6.76c-0.66,0.51-1.29,1.01-1.91,1.5
			c-0.61,0.48-1.24,0.96-1.86,1.42c-0.62,0.45-1.24,0.9-1.87,1.34c-2.52,4.88-6.22,7.82-10.69,10.18c-0.64,0.34-1.29,0.67-1.98,1
			c-2.08,0.84-4.07,1.88-6.01,3.03c-0.65,0.38-1.28,0.77-1.92,1.18c-3.2,3.67-7.68,6.33-12.13,9.3c-0.56,0.37-1.11,0.75-1.66,1.13
			c-4.21,5.16-10.21,10.16-16.48,12.54c-0.47,0.57-0.94,1.16-1.41,1.74c-3.33,4.1-6.88,8.29-10.84,11.17
			c-0.44,0.46-0.91,0.91-1.39,1.35c-2.39,2.18-5.19,4.01-8.3,5.66c-0.4,0.49-0.82,0.96-1.26,1.41c-3.08,3.18-7.18,5.48-11.02,8.26
			c-0.45,0.43-0.87,0.85-1.31,1.26c-2.19,2.07-4.67,4.04-7.11,6.15c-0.27,0.48-0.55,0.94-0.84,1.4c-1.18,1.8-2.57,3.38-4.14,4.76
			c-0.48,0.43-0.98,0.84-1.51,1.3c-2.24,1.66-4.38,3.62-6.57,5.57c-0.55,0.49-1.1,0.98-1.68,1.44c-1.91,0.95-3.78,1.88-5.55,2.88
			c-0.59,0.34-1.16,0.68-1.73,1.04c-7.07,2.23-8.07,9.23-14.21,12.19c-0.62,0.39-1.25,0.78-1.88,1.17
			c-1.88,1.18-3.72,2.42-5.32,3.95c-0.36,0.3-0.72,0.6-1.08,0.9c-1.58,8.02-8.58,10.02-15.53,12.92c-0.56,0.37-1.13,0.75-1.72,1.13
			c-0.47,0.37-0.95,0.74-1.42,1.09c-0.7,0.53-1.4,1.04-2.1,1.53c-5.81,3.35-10.81,7.35-15.61,11.36c-0.5,0.47-1,0.93-1.48,1.4
			c-1.46,1.39-2.84,2.8-4.18,4.18c-0.49,0.53-0.96,1.07-1.4,1.64s-0.86,1.17-1.25,1.8c-0.51,0.42-1.03,0.8-1.58,1.16
			c-3.78,2.55-8.14,4.08-12.62,6.08c-0.53,0.37-1.04,0.74-1.54,1.14c-1.48,1.19-2.82,2.56-3.97,4.27c-0.52,0.42-1.05,0.83-1.58,1.24
			c-3.74,2.9-7.56,5.97-12.14,8.05c-0.76,0.46-1.47,0.92-2.18,1.38c-1.57,0.66-3.12,1.35-4.65,2.08c-0.51,0.24-1.01,0.49-1.51,0.75
			c-5.12,4.82-10.12,9.82-17.51,11.56c-0.6,0.25-1.2,0.49-1.8,0.72c-0.6,0.23-1.2,0.46-1.79,0.67c-0.56,0.43-1.12,0.87-1.69,1.32
			c-0.64,0.34-1.28,0.67-1.91,1.01c-0.97,0.5-1.93,1-2.9,1.48H0v-63.43c0.83-0.27,1.66-0.54,2.5-0.81c0.83-0.27,1.66-0.55,2.49-0.82
			c3.68-2.94,8.03-4.16,12.63-5.04c0.76-0.15,1.54-0.29,2.35-0.43c9.39-0.41,17.39-1.41,24.25-7.46c0.54-0.33,1.1-0.62,1.66-0.9
			c2.79-1.38,5.64-2.49,8.52-3.49c0.69-0.24,1.37-0.47,2.1-0.71c0.65-0.24,1.32-0.46,1.99-0.68c0.67-0.21,1.34-0.42,2.02-0.62
			c7.2-2.34,14.52-3.37,20.93-8.23c0.58-0.45,1.16-0.92,1.72-1.43c6.6-6.32,14.71-6.84,22.72-8.97c0.73-0.19,1.46-0.4,2.18-0.63
			c4.84-1.92,9.58-3.4,14.07-5.07c0.64-0.23,1.28-0.48,1.93-0.73c6.92-1.24,12.24-4.92,18.09-8.52c0.58-0.37,1.17-0.72,1.77-1.08
			c0.6-0.36,1.2-0.71,1.79-1.08c4.75-7.01,12.74-7.48,20.32-9.27c0.76-0.18,1.51-0.38,2.26-0.59c4.71-1.72,9.73-3.12,14.52-4.96
			c0.68-0.26,1.36-0.53,2.03-0.83c7.14-5.37,15.11-8.4,23.63-10.92c0.71-0.21,1.42-0.42,2.17-0.63c4.36-0.3,8.04-1.96,11.5-4.01
			c0.57-0.34,1.14-0.7,1.71-1.06c2.3-2.72,5.2-4.49,8.41-5.82c0.64-0.26,1.3-0.51,1.96-0.75c1.53-0.74,3.08-1.45,4.66-2.14
			c0.55-0.24,1.11-0.47,1.68-0.71c8.07-1.94,17.14-2.95,24.23-8.76c0.64-0.53,1.27-1.1,1.86-1.72c0.65-0.39,1.3-0.76,1.96-1.11
			c0.66-0.35,1.32-0.69,1.99-1.02c2.25-2.17,4.87-3.62,7.66-4.73c0.7-0.28,1.42-0.53,2.14-0.78c4.98-0.5,9.72-2,14.48-3.8
			c0.68-0.25,1.36-0.52,2.04-0.78c6.44-4.42,13.44-6.42,20.1-9.47c0.66-0.37,1.34-0.73,2.02-1.08c4.08-2.1,8.49-3.85,13.59-5.05
			c0.53-0.21,1.06-0.42,1.59-0.63s1.05-0.42,1.58-0.63c9.53-0.02,18.95-0.14,28.22-0.35c57.24,0.91,113.5,0.17,162.19-3.35
			C581.16,290.935,629.69,279.205,683.49,269.445z"/>
	</g>
	<g>
		<g>
			<ellipse style="opacity:0.5;fill:#608A00;" cx="644.635" cy="431.296" rx="70.998" ry="11.356"/>
			<g>
				<path style="fill:#5B3D31;" d="M659.451,354.976h-14.815H629.82c0,0,0.883,35.1-6.654,76.983c0,0,6.008,3.036,21.469,3.036
					c15.461,0,21.469-3.036,21.469-3.036C658.568,390.076,659.451,354.976,659.451,354.976z"/>
				<g>
					<path style="fill:#422B23;" d="M636.427,354.979c-0.057,4.828-0.333,9.655-0.745,14.46c-0.47,5.401-1.181,10.779-2.099,16.135
						c-1.032,5.321-2.213,10.653-4.232,15.745c-0.688,1.686-1.445,3.371-2.408,4.931c0.08-0.642,0.149-1.273,0.218-1.904v-0.011
						c0.516-1.089,0.963-2.213,1.376-3.337c1.8-5.046,2.982-10.321,3.922-15.63c1.009-5.298,1.697-10.653,2.351-16.02
						c0.321-2.683,0.608-5.367,0.872-8.062c0.229-2.099,0.413-4.197,0.596-6.307H636.427z"/>
					<path style="fill:#422B23;" d="M660.773,433.565c-0.183,0.034-0.39,0.08-0.596,0.115c-1.319-3.257-2.362-6.64-3.314-10.011
						c-1.525-5.665-2.592-11.445-3.429-17.247c-1.422-3.245-2.695-6.559-3.658-9.965c-0.665-2.007-1.078-4.071-1.606-6.112
						c-0.401-2.064-0.86-4.128-1.147-6.215c-0.654-4.163-1.067-8.36-1.17-12.568c-0.115-4.209-0.023-8.429,0.539-12.591
						c-0.046,2.099-0.046,4.186,0.034,6.284c0.046,2.087,0.149,4.174,0.31,6.261c0.298,4.163,0.745,8.325,1.411,12.442
						c0.619,4.128,1.456,8.211,2.477,12.259c0.264,1.009,0.493,2.03,0.78,3.039l0.906,3.005c0.275,1.055,0.631,2.076,0.986,3.108
						c-0.184-1.33-0.367-2.672-0.528-4.002c-0.826-7.523-1.365-15.068-1.56-22.614c-0.183-7.557-0.149-15.114,0.31-22.648
						c0.011,3.773,0.046,7.546,0.16,11.318c0.08,3.761,0.218,7.534,0.413,11.296c0.378,7.523,0.895,15.045,1.812,22.511
						c0.826,7.477,2.041,14.919,3.807,22.224C658.548,426.868,659.546,430.263,660.773,433.565z"/>
					<path style="fill:#422B23;" d="M641.037,365.999l-0.654-1.927l-0.184,2.018c-0.011,0.115-1.078,11.674-3.36,23.233
						c-1.353,6.857,1.617,11.41,1.754,11.594l0.7,1.055l0.08-1.261c0-0.057,0.39-5.917,2.19-14.059
						C644.088,375.23,641.072,366.079,641.037,365.999z M640.728,386.457c-1.284,5.803-1.858,10.458-2.076,12.717
						c-0.78-1.754-1.846-5.229-0.963-9.678c1.663-8.463,2.695-16.914,3.131-20.928C641.53,371.928,642.448,378.648,640.728,386.457z
						"/>
					<path style="fill:#422B23;" d="M634.054,392.73c-0.057,3.91-0.344,7.809-0.711,11.708c-0.367,3.887-0.917,7.763-1.571,11.628
						c-0.677,3.853-1.514,7.695-2.626,11.456c-0.573,1.927-1.216,3.865-2.03,5.722c-0.195-0.046-0.367-0.092-0.539-0.149
						c0.034-0.069,0.057-0.149,0.08-0.218l0.894-2.775l0.745-2.821c0.906-3.773,1.697-7.58,2.351-11.41
						c0.677-3.83,1.25-7.683,1.823-11.536L634.054,392.73z"/>
					<path style="fill:#422B23;" d="M664.259,420.802c-0.31-0.436-0.585-0.906-0.86-1.365c-0.654-1.273-1.239-2.592-1.72-3.933
						c-0.952-2.706-1.663-5.493-2.259-8.28c-1.193-5.608-1.892-11.272-2.511-16.949c-0.516-5.688-0.929-11.376-1.147-17.075
						c-0.206-5.699-0.298-11.399-0.149-17.098l0.493,8.532c0.16,2.844,0.333,5.688,0.539,8.52
						c0.401,5.676,0.791,11.353,1.399,17.006c0.527,5.665,1.238,11.307,2.236,16.892c0.493,2.787,1.101,5.562,1.927,8.268
						c0.516,1.686,1.089,3.417,1.972,4.943C664.213,420.435,664.236,420.619,664.259,420.802z"/>
					<path style="fill:#422B23;" d="M645.039,406.491c0,4.048-0.138,8.096-0.31,12.144c-0.218,4.048-0.482,8.096-0.906,12.121
						c-0.149,1.411-0.298,2.821-0.482,4.232c-0.229,0-0.447,0-0.665-0.012c0.103-1.433,0.184-2.855,0.275-4.289l0.631-12.11
						l0.585-12.11l0.287-6.066l0.344-6.055C645.016,398.395,645.051,402.443,645.039,406.491z"/>
					<path style="fill:#422B23;" d="M653.365,434.643c-0.252,0.011-0.505,0.034-0.757,0.057c-0.229-0.596-0.424-1.193-0.619-1.789
						c-0.688-2.316-1.181-4.679-1.537-7.052c-0.642-4.759-0.814-9.598-0.218-14.357c0.138,2.397,0.333,4.77,0.539,7.133
						c0.218,2.362,0.47,4.725,0.814,7.064c0.332,2.339,0.768,4.667,1.273,6.972C653.021,433.336,653.193,433.99,653.365,434.643z"/>
					<path style="fill:#422B23;" d="M638.503,413.497c-0.206,2.89-0.573,5.78-1.044,8.646c-0.493,2.855-1.055,5.711-1.904,8.497
						c-0.39,1.284-0.803,2.569-1.284,3.83c-0.206-0.023-0.401-0.046-0.596-0.069c0.206-0.619,0.356-1.261,0.528-1.881
						c0.183-0.7,0.355-1.399,0.493-2.099c0.642-2.798,1.17-5.631,1.64-8.474c0.493-2.833,0.872-5.688,1.284-8.543l1.158-8.601
						C638.858,407.706,638.709,410.608,638.503,413.497z"/>
				</g>
				<path style="opacity:0.2;fill:#5B3D31;" d="M660.671,389.002c-5.211,0.323-10.573,0.495-16.043,0.495
					c-5.47,0-10.831-0.172-16.043-0.495c1.572-20.392,1.227-34.023,1.227-34.023h29.631
					C659.444,354.979,659.099,368.61,660.671,389.002z"/>
			</g>
			<g>
				<path style="fill:#629135;" d="M735.924,347.852l-35.335-61.676c0.046,0.029,0.092,0.058,0.139,0.087
					c-0.052-0.04-0.105-0.079-0.157-0.119l-0.101-0.176c13.993-1.919,22.576-3.856,22.434-3.978l-31.043-56.894
					c11.414-1.066,18.399-4.214,18.386-4.264h0.084l-30.735-51.648c10.845-0.871,17.716-3.552,17.716-3.552l-52.678-88.523
					l-52.677,88.523c0,0,6.87,2.681,17.714,3.552l-30.734,51.648h0.084c-0.014,0.05,6.972,3.198,18.387,4.264l-31.044,56.894
					c-0.142,0.122,8.441,2.059,22.434,3.978l-0.101,0.176c-0.052,0.04-0.105,0.079-0.157,0.119c0.046-0.029,0.092-0.058,0.139-0.087
					l-35.335,61.676c0,0,40.872,14.974,91.291,14.974c50.419,0,91.291-14.974,91.291-14.974L735.924,347.852z"/>
				<g>
					<path style="fill:#4B7325;" d="M626.748,170.959l-0.021,3.454l2.674-2.307l15.234-13.151l15.232,13.153l2.678,2.313
						l-0.021-3.462c-0.027-4.324-0.257-8.646-0.43-12.969c5.634,3.827,11.347,7.554,17.136,11.181
						c-5.804-4.881-11.687-9.659-17.687-14.287l-1.81-1.396l-0.05,2.305c-0.084,3.887-0.251,7.775-0.312,11.661l-13.507-12.179
						l-1.229-1.108l-1.229,1.108l-13.51,12.185c-0.063-3.888-0.233-7.778-0.314-11.667l-0.047-2.296l-1.805,1.391
						c-6.001,4.626-11.883,9.406-17.689,14.283c5.789-3.632,11.505-7.361,17.142-11.191
						C627.009,162.306,626.773,166.632,626.748,170.959z"/>
					<path style="fill:#4B7325;" d="M620.839,227.256l-0.021,3.468l2.673-2.321l21.143-18.359l21.141,18.361l2.678,2.326
						l-0.021-3.475c-0.037-6.153-0.297-12.304-0.482-18.457c7.855,5.447,15.799,10.782,23.819,16.016
						c-8.026-6.498-16.13-12.894-24.351-19.139l-1.828-1.389l-0.033,2.297c-0.081,5.723-0.255,11.446-0.291,17.168l-19.404-17.397
						l-1.229-1.102l-1.229,1.102l-19.407,17.402c-0.038-5.724-0.215-11.449-0.292-17.174l-0.031-2.289l-1.821,1.384
						c-8.222,6.243-16.326,12.64-24.354,19.135c8.021-5.239,15.967-10.575,23.825-16.026
						C621.141,214.945,620.875,221.1,620.839,227.256z"/>
					<path style="fill:#4B7325;" d="M700.728,286.263c-0.052-0.04-0.105-0.079-0.157-0.118l0.018,0.032
						C700.635,286.204,700.681,286.234,700.728,286.263z"/>
					<path style="fill:#4B7325;" d="M588.541,286.263c0.046-0.029,0.092-0.058,0.139-0.087l0.018-0.031
						C588.646,286.184,588.593,286.223,588.541,286.263z"/>
					<path style="fill:#4B7325;" d="M616.316,289.011l-0.024,3.906l3.181-2.614l25.161-20.678l25.159,20.68l3.187,2.62l-0.025-3.914
						c-0.044-6.93-0.353-13.858-0.574-20.788c9.303,6.105,18.71,12.084,28.208,17.952l-0.018-0.032
						c-9.5-7.278-19.091-14.443-28.822-21.437l-2.175-1.564l-0.039,2.587c-0.097,6.445-0.303,12.891-0.346,19.336l-23.092-19.593
						l-1.463-1.241l-1.463,1.241l-23.096,19.6c-0.044-6.447-0.256-12.895-0.348-19.343l-0.037-2.578l-2.168,1.559
						c-9.732,6.993-19.323,14.159-28.825,21.433l-0.018,0.031c9.498-5.873,18.909-11.854,28.214-17.962
						C616.676,275.146,616.36,282.078,616.316,289.011z"/>
					<path style="fill:#4B7325;" d="M604.782,246.632c1.222-1.522,1.962-3.197,2.586-4.909c0.574-1.728,1.037-3.491,1.02-5.407
						c-1.219,1.523-1.959,3.198-2.586,4.909C605.224,242.952,604.761,244.715,604.782,246.632z"/>
					<path style="fill:#4B7325;" d="M587.864,264.393c1.466-1.446,2.474-3.104,3.372-4.814c0.851-1.731,1.596-3.511,1.887-5.502
						c-1.462,1.448-2.47,3.106-3.372,4.814C588.897,260.621,588.152,262.401,587.864,264.393z"/>
					<path style="fill:#4B7325;" d="M676.793,237.892c-0.017,1.916,0.445,3.679,1.02,5.407c0.624,1.712,1.364,3.387,2.586,4.909
						c0.02-1.917-0.442-3.68-1.02-5.407C678.752,241.09,678.012,239.415,676.793,237.892z"/>
					<path style="fill:#4B7325;" d="M697.316,264.393c-0.287-1.992-1.032-3.773-1.887-5.502c-0.901-1.708-1.909-3.366-3.371-4.814
						c0.29,1.991,1.035,3.771,1.887,5.502C694.843,261.289,695.851,262.947,697.316,264.393z"/>
					<path style="fill:#4B7325;" d="M618.31,248.806c-0.474,1.703-0.83,3.438-0.697,5.303c1.128-1.529,1.766-3.188,2.287-4.879
						c0.471-1.704,0.827-3.439,0.697-5.303C619.472,245.457,618.834,247.116,618.31,248.806z"/>
					<path style="fill:#4B7325;" d="M637.641,238.535c-0.294,1.706-0.468,3.431-0.141,5.242c0.963-1.592,1.425-3.268,1.766-4.965
						c0.291-1.706,0.464-3.432,0.141-5.242C638.448,235.161,637.986,236.838,637.641,238.535z"/>
					<path style="fill:#4B7325;" d="M652.607,243.793c-0.381,1.81-0.262,3.549-0.026,5.272c0.288,1.716,0.696,3.415,1.608,5.044
						c0.384-1.81,0.266-3.549,0.026-5.272C653.923,247.122,653.515,245.422,652.607,243.793z"/>
					<path style="fill:#4B7325;" d="M681.139,318.898c0.02-1.917-0.442-3.68-1.02-5.407c-0.627-1.711-1.367-3.386-2.586-4.909
						c-0.017,1.916,0.445,3.679,1.02,5.407C679.177,315.701,679.917,317.376,681.139,318.898z"/>
					<path style="fill:#4B7325;" d="M694.685,331.846c0.898,1.709,1.906,3.367,3.372,4.814c-0.287-1.993-1.032-3.773-1.887-5.502
						c-0.901-1.708-1.909-3.366-3.372-4.814C693.089,328.334,693.834,330.115,694.685,331.846z"/>
					<path style="fill:#4B7325;" d="M693.002,303.555c0.02-1.917-0.442-3.681-1.02-5.407c-0.628-1.711-1.367-3.386-2.586-4.909
						c-0.017,1.916,0.445,3.68,1.02,5.407C691.039,300.358,691.779,302.033,693.002,303.555z"/>
					<path style="fill:#4B7325;" d="M709.919,324.467c-0.287-1.993-1.032-3.773-1.886-5.502c-0.901-1.708-1.909-3.366-3.372-4.814
						c0.291,1.991,1.035,3.771,1.887,5.503C707.446,321.363,708.454,323.022,709.919,324.467z"/>
					<path style="fill:#4B7325;" d="M604.782,315.456c1.222-1.522,1.962-3.197,2.586-4.909c0.574-1.728,1.037-3.491,1.02-5.407
						c-1.219,1.523-1.959,3.198-2.586,4.909C605.224,311.776,604.761,313.539,604.782,315.456z"/>
					<path style="fill:#4B7325;" d="M590.494,304.329c1.222-1.522,1.962-3.197,2.586-4.909c0.575-1.728,1.037-3.491,1.02-5.407
						c-1.219,1.523-1.959,3.198-2.586,4.909C590.935,300.648,590.473,302.412,590.494,304.329z"/>
					<path style="fill:#4B7325;" d="M587.864,331.642c1.466-1.446,2.474-3.104,3.372-4.814c0.851-1.731,1.596-3.511,1.887-5.503
						c-1.462,1.448-2.47,3.106-3.372,4.814C588.897,327.869,588.152,329.649,587.864,331.642z"/>
					<path style="fill:#4B7325;" d="M670.685,338.727c0.134-1.865-0.222-3.6-0.697-5.303c-0.524-1.69-1.162-3.349-2.287-4.879
						c-0.13,1.864,0.226,3.599,0.697,5.303C668.919,335.538,669.557,337.198,670.685,338.727z"/>
					<path style="fill:#4B7325;" d="M649.333,311.025c0.327-1.811,0.153-3.537-0.141-5.242c-0.345-1.697-0.807-3.373-1.766-4.966
						c-0.323,1.81-0.15,3.536,0.141,5.242C647.908,307.756,648.37,309.433,649.333,311.025z"/>
					<path style="fill:#4B7325;" d="M644.792,340.048c-0.085-1.701-0.288-3.397-0.995-5.079c-0.595,1.721-0.684,3.427-0.655,5.129
						c0.081,1.701,0.284,3.397,0.995,5.079C644.735,343.455,644.824,341.75,644.792,340.048z"/>
					<path style="fill:#4B7325;" d="M634.252,316.314c0.236-1.723,0.355-3.463-0.026-5.272c-0.908,1.63-1.317,3.329-1.608,5.044
						c-0.24,1.723-0.359,3.462,0.026,5.272C633.556,319.728,633.964,318.03,634.252,316.314z"/>
					<path style="fill:#4B7325;" d="M611.926,337.925c-0.403,1.627-0.687,3.283-0.478,5.057c1.062-1.47,1.63-3.057,2.08-4.674
						c0.4-1.628,0.684-3.284,0.479-5.057C612.947,334.722,612.379,336.31,611.926,337.925z"/>
					<path style="fill:#4B7325;" d="M652.093,115.47c0.327-1.811,0.153-3.537-0.141-5.242c-0.345-1.696-0.807-3.373-1.766-4.965
						c-0.324,1.81-0.15,3.536,0.141,5.242C650.668,112.202,651.13,113.878,652.093,115.47z"/>
					<path style="fill:#4B7325;" d="M645.459,138.746c-0.085-1.7-0.288-3.397-0.995-5.079c-0.594,1.721-0.684,3.427-0.655,5.129
						c0.081,1.701,0.284,3.397,0.995,5.079C645.402,142.154,645.492,140.448,645.459,138.746z"/>
					<path style="fill:#4B7325;" d="M637.366,114.115c0.236-1.723,0.355-3.463-0.026-5.272c-0.909,1.629-1.317,3.328-1.608,5.044
						c-0.24,1.723-0.358,3.462,0.026,5.272C636.67,117.53,637.078,115.831,637.366,114.115z"/>
					<path style="fill:#4B7325;" d="M623.81,130.313c-1.23,1.396-1.985,2.958-2.629,4.558c-0.595,1.617-1.076,3.275-1.079,5.1
						c1.233-1.395,1.988-2.957,2.629-4.559C623.324,133.794,623.804,132.136,623.81,130.313z"/>
					<path style="fill:#4B7325;" d="M667.986,143.929c0.02-1.917-0.442-3.681-1.02-5.407c-0.627-1.711-1.367-3.386-2.586-4.909
						c-0.017,1.916,0.445,3.68,1.02,5.407C666.023,140.732,666.763,142.407,667.986,143.929z"/>
					<path style="fill:#4B7325;" d="M674.658,178.983c0.624,1.712,1.364,3.387,2.586,4.909c0.02-1.917-0.442-3.681-1.02-5.407
						c-0.627-1.711-1.367-3.386-2.586-4.909C673.621,175.492,674.084,177.255,674.658,178.983z"/>
					<path style="fill:#4B7325;" d="M692.476,207.979c-0.287-1.993-1.032-3.773-1.887-5.503c-0.902-1.708-1.909-3.366-3.372-4.814
						c0.291,1.991,1.035,3.772,1.886,5.503C690.003,204.874,691.011,206.533,692.476,207.979z"/>
					<path style="fill:#4B7325;" d="M619.082,177.942c0.575-1.728,1.037-3.491,1.02-5.407c-1.219,1.523-1.959,3.198-2.586,4.909
						c-0.578,1.727-1.04,3.49-1.02,5.407C617.718,181.329,618.458,179.654,619.082,177.942z"/>
					<path style="fill:#4B7325;" d="M605.093,192.614c-1.462,1.448-2.47,3.106-3.372,4.814c-0.854,1.729-1.599,3.51-1.887,5.503
						c1.466-1.446,2.474-3.105,3.372-4.814C604.057,196.386,604.802,194.606,605.093,192.614z"/>
					<path style="fill:#4B7325;" d="M666.907,192.146c0.52,1.691,1.159,3.35,2.287,4.879c0.134-1.865-0.223-3.6-0.697-5.303
						c-0.524-1.69-1.162-3.349-2.287-4.879C666.079,188.707,666.436,190.441,666.907,192.146z"/>
					<path style="fill:#4B7325;" d="M647.566,178.683c0.341,1.697,0.804,3.374,1.766,4.965c0.327-1.811,0.153-3.537-0.141-5.242
						c-0.345-1.696-0.807-3.373-1.766-4.965C647.102,175.252,647.276,176.977,647.566,178.683z"/>
					<path style="fill:#4B7325;" d="M632.644,193.982c0.912-1.629,1.32-3.328,1.608-5.044c0.236-1.723,0.355-3.463-0.026-5.272
						c-0.908,1.629-1.317,3.328-1.608,5.044C632.379,190.432,632.26,192.172,632.644,193.982z"/>
				</g>
			</g>
		</g>
		<g>
			<path style="opacity:0.5;fill:#608A00;" d="M138.32,298.563c0,3.92-19.867,7.098-44.373,7.098
				c-24.507,0-44.374-3.178-44.374-7.098c0-3.92,19.867-7.097,44.374-7.097C118.453,291.466,138.32,294.644,138.32,298.563z"/>
			<g>
				<path style="fill:#5B3D31;" d="M103.206,250.864h-9.259h-9.26c0,0,0.552,21.938-4.159,48.115c0,0,3.755,1.898,13.418,1.898
					c9.663,0,13.418-1.898,13.418-1.898C102.654,272.801,103.206,250.864,103.206,250.864z"/>
				<g>
					<path style="fill:#422B23;" d="M88.817,250.865c-0.036,3.017-0.208,6.035-0.466,9.038c-0.294,3.376-0.738,6.737-1.312,10.084
						c-0.645,3.326-1.383,6.658-2.645,9.84c-0.43,1.054-0.903,2.107-1.505,3.082c0.05-0.401,0.093-0.796,0.136-1.19v-0.007
						c0.323-0.681,0.602-1.383,0.86-2.086c1.125-3.154,1.863-6.45,2.451-9.769c0.631-3.311,1.061-6.658,1.469-10.013
						c0.201-1.677,0.38-3.354,0.545-5.039c0.143-1.312,0.258-2.623,0.373-3.942H88.817z"/>
					<path style="fill:#422B23;" d="M104.032,299.982c-0.115,0.021-0.244,0.05-0.373,0.072c-0.824-2.035-1.477-4.15-2.071-6.257
						c-0.953-3.541-1.62-7.153-2.143-10.779c-0.889-2.028-1.684-4.1-2.286-6.228c-0.416-1.254-0.674-2.544-1.003-3.82
						c-0.251-1.29-0.537-2.58-0.717-3.885c-0.409-2.602-0.667-5.225-0.731-7.855c-0.072-2.63-0.014-5.268,0.337-7.87
						c-0.029,1.312-0.029,2.616,0.021,3.928c0.029,1.304,0.093,2.609,0.194,3.913c0.186,2.602,0.466,5.203,0.882,7.776
						c0.387,2.58,0.91,5.132,1.548,7.662c0.165,0.631,0.308,1.269,0.487,1.899l0.566,1.878c0.172,0.659,0.394,1.297,0.616,1.942
						c-0.115-0.831-0.229-1.67-0.33-2.501c-0.516-4.702-0.853-9.418-0.975-14.134c-0.115-4.723-0.093-9.446,0.194-14.155
						c0.007,2.358,0.029,4.716,0.1,7.074c0.05,2.351,0.136,4.709,0.258,7.06c0.236,4.702,0.559,9.403,1.132,14.069
						c0.516,4.673,1.276,9.324,2.379,13.89C102.642,295.796,103.266,297.918,104.032,299.982z"/>
					<path style="fill:#422B23;" d="M91.698,257.753l-0.409-1.204l-0.115,1.262c-0.007,0.072-0.674,7.296-2.1,14.521
						c-0.846,4.286,1.011,7.131,1.097,7.246l0.437,0.659l0.05-0.788c0-0.036,0.244-3.698,1.369-8.787
						C93.604,263.522,91.719,257.803,91.698,257.753z M91.504,270.539c-0.803,3.626-1.161,6.536-1.297,7.948
						c-0.487-1.096-1.154-3.268-0.602-6.049c1.039-5.289,1.684-10.571,1.957-13.08C92.006,261.458,92.579,265.658,91.504,270.539z"
						/>
					<path style="fill:#422B23;" d="M87.333,274.46c-0.036,2.444-0.215,4.881-0.444,7.318c-0.229,2.43-0.573,4.852-0.982,7.268
						c-0.423,2.408-0.946,4.809-1.641,7.16c-0.358,1.204-0.76,2.415-1.269,3.576c-0.122-0.029-0.229-0.057-0.337-0.093
						c0.021-0.043,0.036-0.093,0.05-0.136l0.559-1.734l0.466-1.763c0.566-2.358,1.061-4.737,1.469-7.131
						c0.423-2.394,0.781-4.802,1.14-7.21L87.333,274.46z"/>
					<path style="fill:#422B23;" d="M106.211,292.005c-0.194-0.272-0.366-0.566-0.538-0.853c-0.409-0.796-0.774-1.62-1.075-2.458
						c-0.595-1.691-1.039-3.433-1.412-5.175c-0.745-3.505-1.183-7.045-1.57-10.593c-0.323-3.555-0.581-7.11-0.717-10.672
						c-0.129-3.562-0.186-7.124-0.093-10.686l0.308,5.332c0.1,1.777,0.208,3.555,0.337,5.325c0.251,3.548,0.494,7.096,0.874,10.629
						c0.33,3.541,0.774,7.067,1.397,10.557c0.308,1.742,0.688,3.476,1.204,5.168c0.323,1.054,0.681,2.136,1.233,3.089
						C106.183,291.775,106.197,291.89,106.211,292.005z"/>
					<path style="fill:#422B23;" d="M94.199,283.06c0,2.53-0.086,5.06-0.193,7.59c-0.136,2.53-0.301,5.06-0.566,7.576
						c-0.093,0.882-0.186,1.763-0.301,2.645c-0.143,0-0.28,0-0.416-0.007c0.064-0.896,0.115-1.785,0.172-2.681l0.394-7.568
						l0.366-7.569l0.179-3.791l0.215-3.784C94.185,278,94.206,280.53,94.199,283.06z"/>
					<path style="fill:#422B23;" d="M99.402,300.655c-0.158,0.007-0.315,0.022-0.473,0.036c-0.143-0.373-0.265-0.745-0.387-1.118
						c-0.43-1.448-0.738-2.924-0.96-4.408c-0.401-2.974-0.509-5.999-0.136-8.973c0.086,1.498,0.208,2.982,0.337,4.458
						c0.136,1.476,0.294,2.953,0.509,4.415c0.208,1.462,0.48,2.917,0.795,4.358C99.188,299.839,99.295,300.247,99.402,300.655z"/>
					<path style="fill:#422B23;" d="M90.114,287.439c-0.129,1.806-0.358,3.612-0.652,5.404c-0.308,1.785-0.659,3.569-1.19,5.311
						c-0.244,0.803-0.502,1.605-0.803,2.394c-0.129-0.014-0.251-0.029-0.373-0.043c0.129-0.387,0.222-0.788,0.33-1.175
						c0.115-0.437,0.222-0.874,0.308-1.312c0.401-1.749,0.731-3.519,1.025-5.297c0.308-1.77,0.545-3.555,0.803-5.34l0.724-5.375
						C90.336,283.82,90.243,285.633,90.114,287.439z"/>
				</g>
				<path style="opacity:0.2;fill:#5B3D31;" d="M103.969,272.13c-3.257,0.202-6.608,0.31-10.027,0.31
					c-3.418,0-6.77-0.108-10.027-0.31c0.983-12.745,0.767-21.265,0.767-21.265h18.519
					C103.202,250.865,102.987,259.384,103.969,272.13z"/>
			</g>
			<g>
				<path style="fill:#629135;" d="M151.002,246.411l-22.084-38.548c0.029,0.018,0.058,0.036,0.087,0.054
					c-0.033-0.025-0.066-0.049-0.098-0.074l-0.063-0.11c8.746-1.199,14.11-2.41,14.021-2.486l-19.402-35.559
					c7.134-0.666,11.5-2.634,11.491-2.665h0.052l-19.209-32.28c6.778-0.544,11.072-2.22,11.072-2.22L93.946,77.197l-32.923,55.327
					c0,0,4.293,1.676,11.071,2.22l-19.209,32.28h0.052c-0.009,0.031,4.357,1.999,11.492,2.665l-19.402,35.559
					c-0.089,0.076,5.276,1.287,14.021,2.486l-0.063,0.11c-0.033,0.025-0.065,0.049-0.098,0.074c0.029-0.018,0.058-0.036,0.087-0.054
					L36.89,246.411c0,0,25.545,9.359,57.057,9.359s57.057-9.359,57.057-9.359L151.002,246.411z"/>
				<g>
					<path style="fill:#4B7325;" d="M82.767,135.853l-0.013,2.159l1.671-1.442l9.521-8.219l9.52,8.221l1.674,1.446l-0.013-2.164
						c-0.017-2.702-0.161-5.404-0.269-8.106c3.521,2.392,7.092,4.721,10.71,6.988c-3.627-3.051-7.304-6.037-11.054-8.929
						l-1.132-0.873l-0.031,1.441c-0.052,2.43-0.157,4.859-0.195,7.288l-8.442-7.612l-0.768-0.692l-0.768,0.692l-8.444,7.616
						c-0.039-2.43-0.146-4.861-0.196-7.292l-0.03-1.435l-1.128,0.87c-3.751,2.891-7.427,5.879-11.056,8.927
						c3.618-2.27,7.191-4.601,10.713-6.994C82.93,130.445,82.783,133.149,82.767,135.853z"/>
					<path style="fill:#4B7325;" d="M79.074,171.038l-0.013,2.167l1.671-1.451l13.215-11.475l13.213,11.476l1.674,1.454
						l-0.013-2.172c-0.023-3.846-0.186-7.69-0.302-11.535c4.91,3.404,9.874,6.739,14.887,10.01
						c-5.016-4.061-10.081-8.059-15.22-11.962l-1.142-0.868l-0.021,1.436c-0.051,3.577-0.159,7.154-0.182,10.73l-12.128-10.873
						l-0.768-0.689l-0.768,0.689l-12.13,10.877c-0.023-3.578-0.134-7.156-0.183-10.734l-0.019-1.43l-1.138,0.865
						c-5.139,3.902-10.204,7.9-15.221,11.959c5.013-3.274,9.979-6.61,14.891-10.016C79.263,163.344,79.096,167.191,79.074,171.038z"
						/>
					<path style="fill:#4B7325;" d="M129.004,207.917c-0.033-0.025-0.066-0.049-0.098-0.074l0.011,0.02
						C128.947,207.881,128.975,207.9,129.004,207.917z"/>
					<path style="fill:#4B7325;" d="M58.888,207.917c0.029-0.018,0.058-0.036,0.087-0.054l0.011-0.02
						C58.953,207.868,58.92,207.893,58.888,207.917z"/>
					<path style="fill:#4B7325;" d="M76.247,209.635l-0.015,2.441l1.988-1.634l15.726-12.924l15.724,12.925l1.992,1.637
						l-0.016-2.446c-0.028-4.331-0.221-8.661-0.359-12.992c5.814,3.816,11.693,7.553,17.63,11.22l-0.011-0.02
						c-5.937-4.549-11.932-9.027-18.014-13.398l-1.359-0.977l-0.025,1.617c-0.061,4.029-0.189,8.057-0.216,12.085L94.86,194.924
						l-0.914-0.776l-0.914,0.776l-14.435,12.25c-0.028-4.03-0.16-8.059-0.218-12.089l-0.023-1.611l-1.355,0.974
						c-6.082,4.371-12.077,8.849-18.016,13.395l-0.011,0.02c5.936-3.671,11.818-7.408,17.634-11.226
						C76.472,200.97,76.274,205.302,76.247,209.635z"/>
					<path style="fill:#4B7325;" d="M69.038,183.149c0.764-0.951,1.226-1.998,1.616-3.068c0.359-1.08,0.648-2.182,0.637-3.379
						c-0.762,0.952-1.224,1.999-1.616,3.068C69.314,180.848,69.025,181.95,69.038,183.149z"/>
					<path style="fill:#4B7325;" d="M58.465,194.249c0.916-0.904,1.546-1.94,2.107-3.009c0.532-1.082,0.997-2.194,1.179-3.439
						c-0.914,0.905-1.544,1.941-2.107,3.009C59.11,191.891,58.644,193.004,58.465,194.249z"/>
					<path style="fill:#4B7325;" d="M114.045,177.686c-0.01,1.197,0.278,2.299,0.638,3.379c0.39,1.07,0.852,2.117,1.616,3.068
						c0.013-1.198-0.276-2.3-0.637-3.379C115.269,179.685,114.807,178.637,114.045,177.686z"/>
					<path style="fill:#4B7325;" d="M126.872,194.249c-0.18-1.245-0.645-2.358-1.179-3.439c-0.563-1.067-1.193-2.104-2.107-3.009
						c0.182,1.244,0.647,2.357,1.179,3.439C125.326,192.309,125.956,193.346,126.872,194.249z"/>
					<path style="fill:#4B7325;" d="M77.493,184.507c-0.296,1.064-0.519,2.149-0.436,3.314c0.705-0.956,1.104-1.993,1.429-3.049
						c0.294-1.065,0.517-2.149,0.436-3.314C78.219,182.414,77.82,183.451,77.493,184.507z"/>
					<path style="fill:#4B7325;" d="M89.575,178.087c-0.184,1.066-0.293,2.144-0.088,3.276c0.602-0.995,0.89-2.043,1.104-3.103
						c0.182-1.066,0.29-2.145,0.088-3.276C90.079,175.979,89.791,177.027,89.575,178.087z"/>
					<path style="fill:#4B7325;" d="M98.929,181.374c-0.238,1.131-0.164,2.218-0.016,3.295c0.18,1.072,0.435,2.134,1.005,3.152
						c0.24-1.131,0.166-2.218,0.016-3.295C99.752,183.454,99.496,182.392,98.929,181.374z"/>
					<path style="fill:#4B7325;" d="M116.762,228.315c0.013-1.198-0.276-2.3-0.638-3.38c-0.392-1.069-0.854-2.117-1.616-3.068
						c-0.01,1.198,0.278,2.3,0.638,3.38C115.535,226.317,115.997,227.364,116.762,228.315z"/>
					<path style="fill:#4B7325;" d="M125.228,236.407c0.561,1.068,1.191,2.105,2.107,3.009c-0.18-1.245-0.645-2.358-1.179-3.439
						c-0.563-1.067-1.193-2.104-2.107-3.008C124.23,234.212,124.696,235.325,125.228,236.407z"/>
					<path style="fill:#4B7325;" d="M124.175,218.725c0.013-1.198-0.276-2.3-0.637-3.38c-0.392-1.069-0.854-2.117-1.616-3.068
						c-0.011,1.197,0.278,2.3,0.637,3.38C122.949,216.727,123.412,217.774,124.175,218.725z"/>
					<path style="fill:#4B7325;" d="M134.749,231.796c-0.179-1.245-0.645-2.358-1.179-3.439c-0.563-1.067-1.193-2.104-2.107-3.009
						c0.182,1.244,0.647,2.357,1.179,3.439C133.203,229.855,133.833,230.892,134.749,231.796z"/>
					<path style="fill:#4B7325;" d="M69.038,226.164c0.764-0.951,1.226-1.998,1.616-3.068c0.359-1.08,0.648-2.182,0.637-3.38
						c-0.762,0.952-1.224,1.999-1.616,3.068C69.314,223.863,69.025,224.966,69.038,226.164z"/>
					<path style="fill:#4B7325;" d="M60.108,219.209c0.764-0.951,1.226-1.998,1.616-3.068c0.359-1.08,0.648-2.182,0.637-3.38
						c-0.762,0.952-1.224,1.999-1.616,3.068C60.384,216.909,60.095,218.011,60.108,219.209z"/>
					<path style="fill:#4B7325;" d="M58.465,236.279c0.916-0.904,1.546-1.94,2.107-3.009c0.532-1.082,0.997-2.195,1.179-3.439
						c-0.914,0.905-1.544,1.941-2.107,3.009C59.11,233.921,58.644,235.034,58.465,236.279z"/>
					<path style="fill:#4B7325;" d="M110.228,240.708c0.084-1.166-0.139-2.25-0.436-3.314c-0.327-1.056-0.726-2.093-1.429-3.049
						c-0.081,1.165,0.141,2.249,0.435,3.314C109.124,238.715,109.523,239.752,110.228,240.708z"/>
					<path style="fill:#4B7325;" d="M96.882,223.394c0.204-1.132,0.096-2.21-0.088-3.276c-0.216-1.06-0.504-2.108-1.104-3.104
						c-0.202,1.132-0.093,2.21,0.088,3.276C95.992,221.351,96.281,222.399,96.882,223.394z"/>
					<path style="fill:#4B7325;" d="M94.044,241.533c-0.053-1.063-0.18-2.123-0.622-3.174c-0.372,1.076-0.427,2.142-0.409,3.206
						c0.05,1.063,0.177,2.123,0.622,3.174C94.009,243.663,94.065,242.597,94.044,241.533z"/>
					<path style="fill:#4B7325;" d="M87.457,226.699c0.148-1.077,0.222-2.164-0.016-3.295c-0.568,1.018-0.823,2.08-1.005,3.152
						c-0.15,1.077-0.224,2.164,0.016,3.295C87.022,228.834,87.277,227.772,87.457,226.699z"/>
					<path style="fill:#4B7325;" d="M73.503,240.207c-0.252,1.017-0.43,2.052-0.299,3.16c0.664-0.919,1.019-1.911,1.3-2.921
						c0.25-1.018,0.428-2.052,0.299-3.16C74.142,238.205,73.786,239.197,73.503,240.207z"/>
					<path style="fill:#4B7325;" d="M98.608,101.172c0.204-1.132,0.096-2.21-0.088-3.276c-0.216-1.06-0.505-2.109-1.104-3.104
						c-0.202,1.131-0.094,2.21,0.088,3.276C97.717,99.13,98.006,100.177,98.608,101.172z"/>
					<path style="fill:#4B7325;" d="M94.462,115.719c-0.053-1.063-0.18-2.123-0.622-3.174c-0.372,1.076-0.427,2.142-0.41,3.205
						c0.05,1.063,0.177,2.123,0.622,3.174C94.426,117.85,94.482,116.783,94.462,115.719z"/>
					<path style="fill:#4B7325;" d="M89.403,100.325c0.148-1.077,0.222-2.164-0.016-3.295c-0.568,1.018-0.823,2.08-1.005,3.153
						c-0.15,1.077-0.224,2.164,0.016,3.295C88.968,102.46,89.224,101.398,89.403,100.325z"/>
					<path style="fill:#4B7325;" d="M80.931,110.449c-0.769,0.872-1.241,1.849-1.643,2.849c-0.372,1.011-0.672,2.047-0.674,3.188
						c0.771-0.872,1.243-1.848,1.643-2.849C80.627,112.624,80.927,111.588,80.931,110.449z"/>
					<path style="fill:#4B7325;" d="M108.54,118.959c0.013-1.198-0.276-2.3-0.638-3.379c-0.392-1.069-0.854-2.116-1.616-3.068
						c-0.011,1.197,0.278,2.3,0.637,3.38C107.314,116.961,107.776,118.008,108.54,118.959z"/>
					<path style="fill:#4B7325;" d="M112.711,140.868c0.39,1.07,0.852,2.117,1.616,3.068c0.013-1.198-0.276-2.3-0.638-3.38
						c-0.392-1.069-0.854-2.116-1.616-3.068C112.063,138.686,112.352,139.788,112.711,140.868z"/>
					<path style="fill:#4B7325;" d="M123.847,158.99c-0.179-1.245-0.645-2.358-1.179-3.439c-0.563-1.067-1.193-2.104-2.107-3.009
						c0.182,1.244,0.647,2.357,1.179,3.439C122.301,157.05,122.931,158.086,123.847,158.99z"/>
					<path style="fill:#4B7325;" d="M77.976,140.217c0.359-1.08,0.648-2.182,0.638-3.38c-0.762,0.952-1.224,1.999-1.616,3.068
						c-0.362,1.079-0.65,2.182-0.637,3.38C77.123,142.334,77.586,141.287,77.976,140.217z"/>
					<path style="fill:#4B7325;" d="M69.232,149.387c-0.914,0.905-1.544,1.941-2.107,3.009c-0.534,1.081-0.999,2.194-1.179,3.439
						c0.916-0.904,1.546-1.94,2.107-3.009C68.585,151.745,69.051,150.632,69.232,149.387z"/>
					<path style="fill:#4B7325;" d="M107.866,149.094c0.325,1.057,0.724,2.094,1.429,3.049c0.083-1.166-0.139-2.25-0.436-3.314
						c-0.328-1.056-0.727-2.093-1.429-3.049C107.349,146.945,107.572,148.029,107.866,149.094z"/>
					<path style="fill:#4B7325;" d="M95.779,140.68c0.213,1.061,0.502,2.109,1.104,3.103c0.204-1.132,0.096-2.21-0.088-3.276
						c-0.216-1.06-0.504-2.108-1.104-3.103C95.488,138.536,95.597,139.614,95.779,140.68z"/>
					<path style="fill:#4B7325;" d="M86.452,150.242c0.57-1.018,0.825-2.08,1.005-3.152c0.148-1.077,0.222-2.164-0.016-3.295
						c-0.568,1.018-0.823,2.08-1.005,3.152C86.286,148.023,86.212,149.111,86.452,150.242z"/>
				</g>
			</g>
		</g>
	</g>
	<g>
		
			<ellipse transform="matrix(0.9951 -0.099 0.099 0.9951 -36.0113 36.8269)" style="fill:#B3892E;" cx="352.94" cy="381.144" rx="168.716" ry="29.528"/>
		<g>
			<g>
				<g>
					<g>
						<polygon style="fill:#86A2BF;" points="502.298,346.615 456.541,345.841 456.541,314.718 502.286,314.718 						"/>
					</g>
					<polygon style="fill:#86A2BF;" points="345.898,368.138 300.141,367.364 300.141,336.241 345.886,336.241 					"/>
				</g>
				<g>
					<g>
						<path style="fill:#3A5463;" d="M483.01,324.248l-14.939-2.272c-9.708,0-17.577,12.586-17.577,28.112
							c0,14.804,7.156,26.926,16.237,28.022l-0.001,0.008l13.969,2.285L483.01,324.248z"/>
						<ellipse style="fill:#4F7287;" cx="481.929" cy="352.36" rx="17.577" ry="28.112"/>
						<ellipse style="fill:#3A5463;" cx="482.988" cy="352.36" rx="11.279" ry="18.039"/>
						<g>
							<path style="fill:#4F7287;" d="M483.229,362.861c-3.73,0-6.764-4.711-6.764-10.501s3.035-10.501,6.764-10.501
								c3.73,0,6.764,4.711,6.764,10.501S486.959,362.861,483.229,362.861z M483.229,342.917c-3.146,0-5.705,4.236-5.705,9.442
								c0,5.207,2.559,9.442,5.705,9.442c3.146,0,5.705-4.236,5.705-9.442C488.934,347.153,486.375,342.917,483.229,342.917z"/>
						</g>
					</g>
					<g>
						<path style="fill:#3A5463;" d="M324.369,342.966l-16.553-2.517c-10.756,0-19.476,13.946-19.476,31.149
							c0,16.403,7.929,29.835,17.991,31.05l-0.001,0.009l15.478,2.531L324.369,342.966z"/>
						<ellipse style="fill:#4F7287;" cx="323.17" cy="374.115" rx="19.476" ry="31.149"/>
						<ellipse style="fill:#3A5463;" cx="324.344" cy="374.115" rx="12.497" ry="19.988"/>
						<g>
							<path style="fill:#4F7287;" d="M324.611,385.751c-4.133,0-7.495-5.22-7.495-11.636s3.362-11.636,7.495-11.636
								c4.133,0,7.495,5.22,7.495,11.636S328.743,385.751,324.611,385.751z M324.611,363.653c-3.486,0-6.322,4.693-6.322,10.462
								s2.836,10.462,6.322,10.462c3.486,0,6.322-4.693,6.322-10.462S328.096,363.653,324.611,363.653z"/>
						</g>
					</g>
					<g>
						<path style="fill:#3A5463;" d="M240.196,337.967l-16.553-2.517c-10.756,0-19.476,13.946-19.476,31.149
							c0,16.403,7.929,29.835,17.991,31.05l-0.001,0.009l15.478,2.531L240.196,337.967z"/>
						<ellipse style="fill:#4F7287;" cx="238.997" cy="369.116" rx="19.476" ry="31.149"/>
						<ellipse style="fill:#3A5463;" cx="240.171" cy="369.116" rx="12.497" ry="19.988"/>
						<g>
							<path style="fill:#4F7287;" d="M240.438,380.751c-4.133,0-7.495-5.22-7.495-11.636c0-6.416,3.363-11.636,7.495-11.636
								c4.133,0,7.495,5.22,7.495,11.636C247.933,375.531,244.571,380.751,240.438,380.751z M240.438,358.653
								c-3.486,0-6.322,4.693-6.322,10.462c0,5.769,2.836,10.462,6.322,10.462c3.486,0,6.322-4.693,6.322-10.462
								C246.76,363.346,243.924,358.653,240.438,358.653z"/>
						</g>
					</g>
				</g>
			</g>
			<g>
				<path style="fill:#FFFFFF;" d="M534.066,226.595v106.43c0,5.293-3.896,9.764-9.13,10.48l-22.638,3.11
					c-1.69-15.526-10.175-27.332-20.373-27.332c-11.395,0-20.643,14.763-20.678,32.989l-115.349,15.866
					c-1.784-17.498-11.278-30.853-22.732-30.853c-12.71,0-23.025,16.488-23.025,36.826v0.317l-43.527,5.985v-68.618
					c0-7.605,4.237-14.564,10.973-18.073l25.584-13.296l14.869-54.758l-7.159-0.023c-6.337-12.815-2.394-28.799,9.506-36.721
					l28.705-19.117c2.359-1.561,5.07-2.453,7.875-2.57l144.266,12.616c12.123,1.068,22.837,6.666,30.512,15.045
					C529.419,203.277,534.066,214.437,534.066,226.595z"/>
				<path style="fill:#F7A131;" d="M534.066,305.54v27.485c0,5.293-3.896,9.764-9.13,10.48l-22.638,3.11
					c-1.69-15.526-10.175-27.332-20.373-27.332c-11.395,0-20.643,14.763-20.678,32.989l-115.349,15.866
					c-1.784-17.498-11.278-30.853-22.732-30.853c-12.71,0-23.025,16.488-23.025,36.826v0.317l-43.527,5.985V335.76L534.066,305.54z"
					/>
				<path style="fill:#D1EBFF;" d="M346.966,167.236c-2.805,0.117-5.516,1.009-7.875,2.57l-28.705,19.117
					c-11.9,7.921-15.843,23.905-9.506,36.721l-111.382-0.458h-16.782c-6.337-12.815-2.171-28.342,9.729-36.263l28.705-19.117
					c2.77-1.842,6.056-2.746,9.377-2.57l126.122-0.023L346.966,167.236z"/>
				<g>
					<path style="fill:#3F5B6B;" d="M329.747,216.487c-3.652-0.009-6.79-2.111-8.188-5.484c-1.387-3.349-0.677-7.022,1.852-9.609
						l28.77-19.558l0.06-0.06c1.069-1.075,2.551-1.691,4.066-1.691c0.116,0,0.232,0.003,0.348,0.01l43.809,2.645
						c1.021,0.062,1.82,0.911,1.82,1.934v30.048c0,1.069-0.869,1.938-1.937,1.938L329.747,216.487z"/>
					<g style="opacity:0.5;">
						<g>
							<polygon style="fill:#FFFFFF;" points="380.21,181.515 360.09,216.565 350.88,216.535 371.29,180.985 							"/>
						</g>
						<g>
							<polygon style="fill:#FFFFFF;" points="392.47,182.265 372.77,216.595 365.55,216.575 385.49,181.835 							"/>
						</g>
					</g>
					<path style="fill:#293E49;" d="M356.306,180.966L356.306,180.966c0.098,0,0.196,0.003,0.295,0.009l43.807,2.645
						c0.557,0.034,0.994,0.498,0.994,1.056v30.048c0,0.583-0.475,1.058-1.06,1.058l-70.593-0.174
						c-3.933-0.01-6.389-2.559-7.376-4.941c-0.974-2.35-1.052-5.825,1.607-8.595l28.626-19.459l0.139-0.095l0.119-0.12
						C353.768,181.488,355.023,180.966,356.306,180.966 M356.306,179.206c-1.755,0-3.445,0.698-4.69,1.95l-28.771,19.558
						c-6.119,6.151-1.776,16.632,6.9,16.653l70.593,0.174c0.002,0,0.005,0,0.007,0c1.556,0,2.818-1.261,2.818-2.818v-30.048
						c0-1.49-1.16-2.723-2.647-2.813l-43.808-2.645C356.573,179.21,356.439,179.206,356.306,179.206L356.306,179.206z"/>
				</g>
				<g>
					<path style="fill:#C1DDFB;" d="M361.572,366.569c-0.324,0-0.587-0.263-0.587-0.587V226.464l-52.949-0.221
						c-0.324-0.001-0.586-0.265-0.584-0.589c0.001-0.323,0.263-0.585,0.587-0.585c0.001,0,0.002,0,0.002,0l53.534,0.223
						c0.323,0.001,0.585,0.264,0.585,0.587v140.103C362.159,366.306,361.897,366.569,361.572,366.569z"/>
				</g>
				<g>
					<g>
						<path style="fill:#3F5B6B;" d="M307.53,271.661c-0.557,0-1.072-0.256-1.411-0.7c-0.34-0.446-0.45-1.011-0.303-1.552
							l9.169-33.635c0.211-0.774,0.918-1.315,1.72-1.315h33.723c0.983,0,1.783,0.8,1.783,1.783v31.428
							c0,0.95-0.743,1.732-1.692,1.781L307.53,271.661z"/>
						<g style="opacity:0.5;">
							<g>
								<polygon style="fill:#FFFFFF;" points="340.39,234.455 319.38,271.055 309.88,271.545 331.16,234.455 								"/>
							</g>
							<g>
								<path style="fill:#FFFFFF;" d="M352.18,236.015l-19.72,34.37l-7.44,0.38l20.84-36.31h4.57
									C351.33,234.455,352.08,235.135,352.18,236.015z"/>
							</g>
						</g>
						<path style="fill:#293E49;" d="M350.428,235.339c0.498,0,0.903,0.405,0.903,0.903v31.429c0,0.481-0.376,0.877-0.857,0.902
							l-42.943,2.209c-0.399,0-0.632-0.249-0.713-0.356c-0.101-0.132-0.255-0.41-0.153-0.785l9.169-33.636
							c0.107-0.392,0.465-0.665,0.871-0.665H350.428 M350.428,233.579h-33.723c-1.201,0-2.254,0.804-2.569,1.963l-9.169,33.636
							c-0.464,1.703,0.825,3.364,2.565,3.364c0.047,0,0.094-0.001,0.142-0.004l42.892-2.208c1.416-0.073,2.526-1.242,2.526-2.66
							v-31.429C353.091,234.771,351.898,233.579,350.428,233.579L350.428,233.579z"/>
					</g>
					<g>
						<path style="fill:#C1DDFB;" d="M298.054,375.302c-0.324,0-0.587-0.262-0.587-0.587v-97.77c0-0.052,0.007-0.104,0.021-0.154
							l12.866-47.259c0.069-0.256,0.301-0.433,0.566-0.433h45.769c0.324,0,0.587,0.262,0.587,0.587v136.967
							c0,0.324-0.262,0.587-0.587,0.587c-0.324,0-0.587-0.263-0.587-0.587v-136.38h-44.734l-12.728,46.749v97.692
							C298.64,375.039,298.378,375.302,298.054,375.302z"/>
					</g>
					<g>
						<path style="fill:#4F7287;" d="M348.623,291.33c-0.973,0-1.76-0.789-1.76-1.76v-9.143c0-0.972,0.788-1.76,1.76-1.76
							c0.972,0,1.76,0.788,1.76,1.76v9.143C350.384,290.542,349.596,291.33,348.623,291.33z"/>
					</g>
				</g>
				<g>
					<g>
						<path style="fill:#C1DDFB;" d="M384.368,353.951c-1.755,0-3.462-0.643-4.785-1.822c-1.529-1.363-2.406-3.319-2.406-5.367
							v-114.69c0-1.926,0.751-3.734,2.116-5.094c1.357-1.352,3.158-2.096,5.073-2.096c0.01,0,0.02,0,0.03,0l32.539,0.134
							c3.948,0.016,7.159,3.241,7.159,7.189v110.795c0,3.652-2.736,6.723-6.363,7.142l-32.539,3.76
							C384.916,353.935,384.641,353.951,384.368,353.951z M384.365,226.056c-1.602,0-3.109,0.622-4.245,1.753
							c-1.142,1.137-1.771,2.651-1.771,4.262v114.69c0,1.713,0.734,3.351,2.013,4.491c1.279,1.139,2.989,1.688,4.694,1.484
							l32.538-3.76c3.036-0.351,5.325-2.92,5.325-5.976V232.206c0-3.303-2.688-6.002-5.99-6.016l-32.539-0.134
							C384.382,226.056,384.373,226.056,384.365,226.056z"/>
					</g>
					<g>
						<path style="fill:#3F5B6B;" d="M391.892,277.71c-1.606,0-2.912-1.306-2.912-2.913v-37.41c0-1.606,1.307-2.913,2.913-2.913
							l18.667,0.074c1.6,0.006,2.901,1.313,2.901,2.913v36.643c0,1.574-1.232,2.853-2.804,2.911L391.892,277.71z"/>
						<g style="opacity:0.5;">
							<g>
								<path style="fill:#FFFFFF;" d="M413.4,236.865l-23.15,40.33c-0.77-0.52-1.27-1.4-1.27-2.4v-11.44l16.55-28.83l5.03,0.02
									C411.95,234.555,413.12,235.555,413.4,236.865z"/>
							</g>
							<g>
								<polygon style="fill:#FFFFFF;" points="413.46,246.275 413.46,258.865 402.88,277.305 395.5,277.575 								"/>
							</g>
						</g>
						<path style="fill:#293E49;" d="M410.564,233.667c0,0-18.666-0.074-18.671-0.074c-2.094,0-3.793,1.697-3.793,3.793v37.41
							c0,2.102,1.706,3.793,3.79,3.793c0.048,0,0.096-0.001,0.144-0.003l18.656-0.694c2.039-0.076,3.652-1.75,3.652-3.79V237.46
							C414.343,235.371,412.654,233.675,410.564,233.667z M412.582,274.103c0,1.098-0.86,1.991-1.957,2.031l-18.656,0.694
							l-0.078,0.001c-1.119,0-2.03-0.912-2.03-2.033v-37.41c0-1.12,0.911-2.032,2.031-2.033l18.666,0.073
							c1.117,0.004,2.025,0.916,2.025,2.033V274.103z"/>
					</g>
					<g>
						<path style="fill:#4F7287;" d="M415.866,293.678c-0.972,0-1.76-0.789-1.76-1.76v-9.143c0-0.972,0.788-1.76,1.76-1.76
							s1.76,0.788,1.76,1.76v9.143C417.626,292.889,416.838,293.678,415.866,293.678z"/>
					</g>
				</g>
				<g>
					<path style="fill:#3F5B6B;" d="M447.158,283.122c-1.057,0-2.053-0.413-2.803-1.162c-0.753-0.751-1.167-1.75-1.166-2.814
						l0.028-43.312c0.001-2.189,1.783-3.969,3.972-3.969l60.121,0.063c1.342,0.001,2.432,1.094,2.432,2.435l-0.03,43.891
						c-0.001,1.31-1.027,2.377-2.335,2.431L447.158,283.122z"/>
					<g style="opacity:0.5;">
						<g>
							<polygon style="fill:#FFFFFF;" points="492.88,231.915 463.88,282.445 450.34,282.995 479.67,231.895 							"/>
						</g>
						<g>
							<path style="fill:#FFFFFF;" d="M509.1,232.725l-28.14,49.03l-9.44,0.38l28.82-50.22l6.97,0.01
								C508.02,231.925,508.66,232.235,509.1,232.725z"/>
						</g>
					</g>
					<g>
						<path style="fill:#293E49;" d="M507.309,231.043l-60.11-0.059c-0.012,0-0.012,0-0.012,0c-2.676,0-4.847,2.171-4.847,4.847
							l-0.035,43.316c0,2.687,2.183,4.858,4.847,4.858c0.07,0,0.141,0,0.199-0.012l60.063-2.429c1.772-0.07,3.18-1.537,3.18-3.31
							l0.023-43.891C510.618,232.533,509.14,231.055,507.309,231.043z M477.935,281.001l-30.653,1.232l-0.129,0.012
							c-0.822,0-1.596-0.329-2.171-0.904c-0.587-0.587-0.915-1.361-0.915-2.195l0.035-43.316c0-1.702,1.385-3.086,3.086-3.086
							l30.747,0.035V281.001z M508.835,278.255c0,0.833-0.657,1.514-1.491,1.549l-27.649,1.126V232.78l27.614,0.023
							c0.857,0,1.549,0.704,1.549,1.561L508.835,278.255z"/>
					</g>
				</g>
			</g>
			<g>
				<path style="fill:#C1DDFB;" d="M308.039,225.656l-14.869,54.77l-25.583,13.297c-6.743,3.504-10.973,10.471-10.973,18.07v68.62
					l-97.382-1.608v-67.013c0-7.599,4.231-14.566,10.973-18.07l25.583-13.297l14.975-55.181L308.039,225.656z"/>
				<g>
					<polygon style="fill:#86A2BF;" points="293.17,280.426 195.788,280.426 210.762,225.245 308.034,225.673 					"/>
					<g>
						<path style="fill:#3A5463;" d="M208.35,273.679c-0.898,0-1.726-0.409-2.271-1.122c-0.546-0.714-0.724-1.62-0.489-2.487
							l9.751-35.933c0.337-1.243,1.472-2.111,2.76-2.111l77.396,0.34c0.896,0.004,1.721,0.415,2.263,1.128
							c0.542,0.713,0.719,1.617,0.484,2.481l-9.662,35.594c-0.337,1.242-1.473,2.11-2.76,2.11H208.35z"/>
						<g style="opacity:0.4;">
							<g>
								<polygon style="fill:#FFFFFF;" points="262.211,232.235 235.94,273.675 219.81,273.675 246.115,232.165 								"/>
							</g>
							<g>
								<polygon style="fill:#FFFFFF;" points="282.326,232.325 256.12,273.675 243.22,273.675 269.469,232.275 								"/>
							</g>
						</g>
						<path style="fill:#293E49;" d="M218.101,231.145l0.009,1.76l77.383,0.34c0.62,0.003,1.191,0.287,1.567,0.781
							c0.376,0.493,0.498,1.119,0.335,1.718l-9.663,35.593c-0.233,0.86-1.019,1.461-1.911,1.461H208.35
							c-0.622,0-1.195-0.283-1.573-0.777c-0.378-0.494-0.501-1.121-0.338-1.721l9.751-35.934c0.234-0.86,1.019-1.461,1.911-1.461
							V231.145 M218.101,231.145c-1.688,0-3.167,1.131-3.609,2.761l-9.751,35.933c-0.645,2.378,1.145,4.72,3.61,4.72h77.472
							c1.688,0,3.167-1.131,3.609-2.76l9.663-35.593c0.644-2.372-1.136-4.709-3.593-4.72l-77.383-0.34
							C218.112,231.145,218.107,231.145,218.101,231.145L218.101,231.145z"/>
					</g>
				</g>
				<g>
					<path style="fill:#3A5463;" d="M187.57,340.268l40.63,0.181c4.598,0.02,8.335-3.701,8.335-8.298v-6.422l-57.227-0.255v6.496
						C179.309,336.539,183.001,340.248,187.57,340.268z"/>
					<g>
						<path style="fill:#6490AB;" d="M159.231,353.694v0.04c-1.827,0.04-3.297,1.527-3.297,3.363v21.654l100.678,1.662v-26.286
							L159.231,353.694z"/>
						<path style="fill:#4F7287;" d="M256.613,354.128L256.613,354.128c6.793-0.505,12.583,4.87,12.583,11.681v12.874l-12.583,1.73
							V354.128z"/>
						<g>
							<path style="fill:#3A5463;" d="M248.166,374.285c-0.006,0-0.012,0-0.017,0l-19.383-0.267
								c-0.648-0.009-1.166-0.542-1.158-1.19c0.009-0.649,0.585-1.177,1.19-1.158l19.383,0.267c0.648,0.009,1.166,0.542,1.158,1.19
								C249.33,373.771,248.806,374.285,248.166,374.285z"/>
						</g>
						<g>
							<path style="fill:#3A5463;" d="M220.976,373.91c-0.006,0-0.012,0-0.017,0l-30.804-0.423c-0.648-0.009-1.166-0.542-1.158-1.19
								c0.009-0.643,0.532-1.158,1.173-1.158c0.006,0,0.011,0,0.017,0l30.804,0.423c0.648,0.009,1.166,0.542,1.158,1.19
								C222.14,373.396,221.616,373.91,220.976,373.91z"/>
						</g>
						<g>
							<path style="fill:#3A5463;" d="M182.305,373.379c-0.006,0-0.012,0-0.017,0l-17.782-0.244
								c-0.648-0.009-1.166-0.542-1.158-1.19c0.009-0.643,0.532-1.158,1.173-1.158c0.006,0,0.011,0,0.017,0l17.782,0.244
								c0.648,0.009,1.166,0.542,1.158,1.19C183.468,372.864,182.945,373.379,182.305,373.379z"/>
						</g>
						<g>
							<path style="fill:#3A5463;" d="M248.165,367.156c-0.003,0-0.005,0-0.008,0l-83.644-0.575
								c-0.648-0.004-1.17-0.534-1.165-1.181c0.005-0.645,0.529-1.166,1.173-1.166c0.003,0,0.005,0,0.008,0l83.644,0.575
								c0.648,0.005,1.17,0.534,1.165,1.182C249.334,366.635,248.81,367.156,248.165,367.156z"/>
						</g>
					</g>
					<g>
						<g>
							
								<linearGradient id="SVGID_00000063633240179612887480000001754512127396310417_" gradientUnits="userSpaceOnUse" x1="256.6133" y1="313.4905" x2="256.6133" y2="420.5053">
								<stop  offset="0" style="stop-color:#FA9C37"/>
								<stop  offset="0.1816" style="stop-color:#F7DC43"/>
							</linearGradient>
							<path style="fill:url(#SVGID_00000063633240179612887480000001754512127396310417_);" d="M265.321,322.972v14.587
								c0,5.199-3.767,9.565-8.708,10.48c-0.634,0.129-1.291,0.188-1.96,0.188c-3.708,0-6.748-3.04-6.748-6.76V326.88
								c0-5.187,3.767-9.553,8.708-10.468c0.634-0.129,1.291-0.188,1.96-0.188c1.854,0,3.544,0.763,4.765,1.983
								S265.321,321.118,265.321,322.972z"/>
							
								<linearGradient id="SVGID_00000018958234516323267570000015535477567100549550_" gradientUnits="userSpaceOnUse" x1="256.6133" y1="318.2491" x2="256.6133" y2="398.0824">
								<stop  offset="0" style="stop-color:#FA9C37"/>
								<stop  offset="0.1816" style="stop-color:#F7DC43"/>
							</linearGradient>
							<path style="opacity:0.7;fill:url(#SVGID_00000018958234516323267570000015535477567100549550_);" d="M262.304,325.322
								v10.882c0,3.878-2.462,7.135-5.691,7.818c-0.414,0.096-0.844,0.14-1.281,0.14c-2.424,0-4.41-2.267-4.41-5.043v-10.882
								c0-3.87,2.462-7.126,5.691-7.809c0.414-0.096,0.844-0.14,1.281-0.14c1.212,0,2.316,0.569,3.114,1.48
								C261.806,322.678,262.304,323.939,262.304,325.322z"/>
							<g>
								<path style="fill:#FFFFFF;" d="M259.594,326.373c-0.1,1.752-1.935,3.566-4.099,4.052c-2.164,0.485-3.837-0.541-3.738-2.293
									c0.1-1.752,1.935-3.566,4.099-4.051C258.021,323.594,259.694,324.621,259.594,326.373z"/>
								<path style="fill:#FFFFFF;" d="M262.34,321.856c-0.044,0.772-0.853,1.571-1.806,1.785c-0.953,0.214-1.691-0.238-1.647-1.011
									c0.044-0.772,0.853-1.571,1.806-1.785C261.647,320.632,262.384,321.084,262.34,321.856z"/>
							</g>
						</g>
						<g>
							
								<linearGradient id="SVGID_00000078041580383441254160000005920861976285797505_" gradientUnits="userSpaceOnUse" x1="161.937" y1="313.4905" x2="161.937" y2="420.505">
								<stop  offset="0" style="stop-color:#FA9C37"/>
								<stop  offset="0.1816" style="stop-color:#F7DC43"/>
							</linearGradient>
							<path style="fill:url(#SVGID_00000078041580383441254160000005920861976285797505_);" d="M159.231,316.011
								c-1.87,0.915-3.297,5.281-3.297,10.48v14.587c0,3.708,2.285,6.194,3.297,6.56c0.634,0.129,1.291,0.188,1.96,0.188
								c3.708,0,6.748-3.039,6.748-6.748V326.49C167.939,321.292,164.172,316.926,159.231,316.011z"/>
							
								<linearGradient id="SVGID_00000146474309283566678270000004549749491053578626_" gradientUnits="userSpaceOnUse" x1="161.2733" y1="318.2787" x2="161.2733" y2="398.0197">
								<stop  offset="0" style="stop-color:#FA9C37"/>
								<stop  offset="0.1816" style="stop-color:#F7DC43"/>
							</linearGradient>
							<path style="opacity:0.7;fill:url(#SVGID_00000146474309283566678270000004549749491053578626_);" d="M164.923,328.237
								v10.879c0,2.781-1.983,5.046-4.413,5.046c-0.434,0-0.868-0.047-1.279-0.141c-0.423-0.094-0.833-0.223-1.232-0.399
								c0,0,0,0,0-0.012c-0.235-0.763-0.376-1.608-0.376-2.535v-14.587c0-2.3,0.27-4.424,0.751-6.173
								c0.293,0.012,0.575,0.047,0.857,0.117C162.459,321.114,164.923,324.364,164.923,328.237z"/>
							<g>
								<path style="fill:#FFFFFF;" d="M160.452,326.371c-0.094,1.749-1.925,3.568-4.096,4.049c-0.141,0.035-0.282,0.059-0.423,0.07
									v-4.002c0-0.751,0.035-1.49,0.094-2.194c0.223-0.082,0.458-0.153,0.693-0.211
									C158.879,323.59,160.557,324.623,160.452,326.371z"/>
								<path style="fill:#FFFFFF;" d="M163.203,321.856c-0.044,0.772-0.853,1.571-1.806,1.785
									c-0.954,0.214-1.691-0.238-1.647-1.011c0.044-0.772,0.853-1.571,1.806-1.785
									C162.509,320.632,163.247,321.084,163.203,321.856z"/>
							</g>
						</g>
					</g>
				</g>
			</g>
		</g>
	</g>
</g>
</svg>
